# xmcd
#
# Track frame offsets:
#	150
#	15158
#	29805
#	45952
#	62989
#	76985
#	88666
#	102790
#	120456
#	135354
#	148229
#	162468
#	174797
#	188111
#	202892
#	213914
#	227092
#	241212
#	257655
#	271888
#	286368
#	299870
#	311860
#	328344
#	340435
#
# Disc length: 4692 seconds
#
# Revision: 1
# Processed by: cddbd v1.5.2PL0 Copyright (c) Steve Scherf et al.
# Submitted via: audiograbber 1.83.01
#
DISCID=71125219
DTITLE=Various Artist - CD 2 CARNAVAL TOP 100
DYEAR=2012
DGENRE=carnaval
TTITLE0=Arie Ribbens - Brabantse Nachten Zijn Lang
TTITLE1=Twee pinten - Bij Ons Staat Op De Keukendeur 
TTITLE2=Arne Jansen - Meisjes Met Rode Haren 
TTITLE3=Hanny - Maar Vanavond Heb Ik Hoofdpijn 
TTITLE4=Joe De Lahiti - Gemütlichkeit Kent Geen Tijd 
TTITLE5=Mo and Joris - Mo is Lam en Ik Ben Christen
TTITLE6=Johnny Hoes - Oh Was Ik Maar Bij Moeder Thuis Gebleven
TTITLE7=Cool down Café - Ik Wil Je
TTITLE8=Pater Moeskroen - Roodkapje
TTITLE9=Jan Lelieveld - Marianne 
TTITLE10=Lowland Trio - De Soesa
TTITLE11=Dj Cor - Hee Hoo 2008 
TTITLE12=Rob Ronalds - Bossie Rode Rozen
TTITLE13=Renee de Haan - De Nacht Is Nog Zo Lang 
TTITLE14=Coctail trio - Kangoeroe Eiland 
TTITLE15=Danny Cardo - Mijn Naam Is Haas
TTITLE16=Dario - Pappie Loop Toch Niet Zo Snel 
TTITLE17=Franky Boy - Kontebonke 
TTITLE18=Hanny - Liefde Is Lekker Maar Lekker Is Niet Altijd Liefde
TTITLE19=Tony Bass - Ik Ben Met Jou Niet Getrouwd 
TTITLE20=Zangeres zonder naam - Keetje Tippel
TTITLE21=One two trio - Jan Klaassen De Trompetter
TTITLE22=Gerard Joling - Liefde op het eerste gezicht
TTITLE23=Peter koelewijn - Kom van dat dak af
TTITLE24=Electronicas - De Vogeltjesdans
EXTD=
EXTT0=
EXTT1=
EXTT2=
EXTT3=
EXTT4=
EXTT5=
EXTT6=
EXTT7=
EXTT8=
EXTT9=
EXTT10=
EXTT11=
EXTT12=
EXTT13=
EXTT14=
EXTT15=
EXTT16=
EXTT17=
EXTT18=
EXTT19=
EXTT20=
EXTT21=
EXTT22=
EXTT23=
EXTT24=
PLAYORDER=
